<svg width="40" height="40" viewBox="0 0 40 40" fill="none" xmlns="http://www.w3.org/2000/svg">
<path d="M12.925 26.6017L12.9049 26.696L12.9092 26.7923L12.958 27.8705L12.9903 28.5866H13.7072H13.7323H13.7574H13.7825H13.8075H13.8326H13.8577H13.8828H13.9078H13.9329H13.958H13.983H14.0081H14.0331H14.0582H14.0833H14.1083H14.1333H14.1584H14.1834H14.2085H14.2335H14.2585H14.2836H14.3086H14.3336H14.3586H14.3837H14.4087H14.4337H14.4587H14.4837H14.5087H14.5337H14.5587H14.5837H14.6087H14.6337H14.6587H14.6837H14.7087H14.7337H14.7587H14.7836H14.8086H14.8336H14.8586H14.8835H14.9085H14.9335H14.9584H14.9834H15.0084H15.0333H15.0583H15.0832H15.1082H15.1331H15.1581H15.183H15.208H15.2329H15.2578H15.2828H15.3077H15.3326H15.3576H15.3825H15.4074H15.4324H15.4573H15.4822H15.5071H15.532H15.557H15.5819H15.6068H15.6317H15.6566H15.6815H15.7064H15.7313H15.7562H15.7811H15.806H15.8309H15.8558H15.8807H15.9056H15.9305H15.9554H15.9802H16.0051H16.03H16.0549H16.0798H16.1046H16.1295H16.1544H16.1793H16.2041H16.229H16.2539H16.2788H16.3036H16.3285H16.3533H16.3782H16.4031H16.4279H16.4528H16.4776H16.5025H16.5273H16.5522H16.5771H16.6019H16.6268H16.6516H16.6764H16.7013H16.7261H16.751H16.7758H16.8007H16.8255H16.8503H16.8752H16.9H16.9248H16.9497H16.9745H16.9993H17.0242H17.049H17.0738H17.0987H17.1235H17.1483H17.1731H17.198H17.2228H17.2476H17.2724H17.2973H17.3221H17.3469H17.3717H17.3965H17.4214H17.4462H17.471H17.4958H17.5206H17.5454H17.5702H17.595H17.6199H17.6447H17.6695H17.6943H17.7191H17.7439H17.7687H17.7935H17.8183H17.8431H17.8679H17.8927H17.9176H17.9424H17.9672H17.992H18.0168H18.0416H18.0664H18.0912H18.116H18.1408H18.1656H18.1904H18.2152H18.24H18.2648H18.2896H18.3144H18.3392H18.364H18.3888H18.4136H18.4384H18.4632H18.488H18.5128H18.5376H18.5624H18.5872H18.612H18.6368H18.6616H18.6864H18.7112H18.736H18.7607H18.7855H18.8103H18.8351H18.8599H18.8847H18.9095H18.9343H18.9591H18.9839H19.0087H19.0335H19.0583H19.0831H19.1079H19.1327H19.1575H19.1823H19.2071H19.2319H19.2567H19.2815H19.3063H19.3311H19.3559H19.3808H19.4056H19.4304H19.4552H19.48H19.5048H19.5296H19.5544H19.5792H19.604H19.6288H19.6536H19.6784H19.7032H19.7281H19.7529H19.7777H19.8025H19.8273H19.8521H19.8769H19.9018H19.9266H19.9514H19.9762H20.001H20.0258H20.0507H20.0755H20.1003H20.1251H20.15H20.1748H20.1996H20.2244H20.2493H20.2741H20.2989H20.3237H20.3486H20.3734H20.3982H20.4231H20.4479H20.4727H20.4976H20.5224H20.5473H20.5721H20.5969H20.6218H20.6466H20.6715H20.6963H20.7212H20.746H20.7709H20.7957H20.8206H20.8454H20.8703H20.8951H20.92H20.9449H20.9697H20.9946H21.0194H21.0443H21.0692H21.094H21.1189H21.1438H21.1687H21.1935H21.2184H21.2433H21.2682H21.293H21.3179H21.3428H21.3677H21.3926H21.4175H21.4424H21.4672H21.4921H21.517H21.5419H21.5668H21.5917H21.6166H21.6415H21.6664H21.6913H21.7162H21.7412H21.7661H21.791H21.8159H21.8408H21.8657H21.8907H21.9156H21.9405H21.9654H21.9904H22.0153H22.0402H22.0652H22.0901H22.115H22.14H22.1649H22.1899H22.2148H22.2398H22.2647H22.2897H22.3146H22.3396H22.3645H22.3895H22.4145H22.4394H22.4644H22.4894H22.5144H22.5393H22.5643H22.5893H22.6143H22.6393H22.6642H22.6892H22.7142H22.7392H22.7642H22.7892H22.8142H22.8392H22.8642H22.8893H22.9143H22.9393H22.9643H22.9893H23.0143H23.0394H23.0644H23.0894H23.1145H23.1395H23.1645H23.1896H23.2146H23.2397H23.2647H23.2898H23.3148H23.3399H23.3649H23.39H23.4151H23.4401H23.4652H23.4903H23.5154H23.5404H23.5655H23.5906H23.6157H23.6408H23.6659H23.691H23.7161H23.7412H23.7663H23.7914H23.8165H23.8416H23.8667H23.8919H23.917H23.9421H23.9673H23.9924H24.0175H24.0427H24.0678H24.093H24.1181H24.1433H24.1684H24.1936H24.2187H24.2439H24.2691H24.2943H24.3194H24.3446H24.3698H24.395H24.4202H24.4454H24.4706H24.4958H24.521H24.5462H24.5714H24.5966H24.6218H24.6471H24.6723H24.6975H24.7227H24.748H24.7732H24.7985H24.8237H24.849H24.8742H24.8995H24.9247H24.95H24.9753H25.0005H25.0258H25.0511H25.0764H25.1017H25.127H25.1523H25.1776H25.2029H25.2282H25.2535H25.2788H25.3041H25.3294H25.3548H25.3801H25.4054H25.4308H25.4561H25.4815H25.5068H25.5322H25.5575H25.5829H25.6083H25.6336H25.659H25.6844H25.7098H25.7352H25.7605H25.7859H25.8113H25.8368H25.8622H25.8876H25.913H25.9384H25.9638H25.9893H26.0147H26.0401H26.0656H26.091H26.1165H26.1419H26.1674H26.1929H26.2183H26.2438H26.2693H26.2948H26.3203H26.3458H26.3713H26.3968H26.4223H26.4478H26.4733H26.4988H27.4304L27.2315 27.6766C27.174 27.4131 27.1218 27.1381 27.0687 26.8589C26.9482 26.2242 26.8235 25.5676 26.6226 24.9749C25.8541 22.7073 24.2644 20.9635 22.292 20.1893C20.2984 19.4068 17.9883 19.6466 15.8994 21.2144C14.1192 22.5506 13.375 24.497 12.925 26.6017ZM23.4412 13.853L23.2169 13.9741L23.1129 14.2067C22.8693 14.7515 22.7028 15.4023 22.9478 15.9898C23.2221 16.6478 23.8604 16.9069 24.4851 16.9703C26.3521 17.1599 28.2292 17.214 30.0713 17.2643C30.3171 17.271 30.5172 17.1798 30.6328 17.115C30.7623 17.0424 30.8767 16.9512 30.9709 16.861C31.1363 16.7026 31.3522 16.4377 31.4289 16.1198C31.5023 15.816 31.5073 15.5201 31.5013 15.272C31.4982 15.1448 31.4935 15.0446 31.489 14.9515C31.4832 14.8287 31.478 14.7182 31.478 14.5748V13.8764L30.7813 13.8267C30.6861 13.8199 30.5946 13.813 30.5062 13.8062C30.5832 13.6861 30.6458 13.5528 30.684 13.404C30.8038 12.9373 30.6354 12.5312 30.4555 12.2306C30.2786 11.9349 30.0083 11.6083 29.711 11.2563L29.3278 10.8028L28.7984 11.0717L28.795 11.0734C27.0702 11.9496 25.316 12.8408 23.4412 13.853ZM10.0637 11.633L9.93432 11.6992L9.839 11.8089C9.53753 12.1558 9.31365 12.5413 9.27722 12.9712C9.24549 13.3456 9.3629 13.656 9.52575 13.8983C9.27044 13.9749 9.0033 14.1031 8.80096 14.3411C8.47896 14.7199 8.47869 15.1799 8.51379 15.5106C8.54859 15.8384 8.6454 16.2468 8.75277 16.6997L8.76352 16.7451L8.90769 17.3536L9.53218 17.3212C10.017 17.296 10.5066 17.2729 10.9996 17.2496C12.4809 17.1797 13.9925 17.1084 15.4934 16.9757C15.7249 16.9552 15.9282 16.8652 16.0732 16.7844C16.2284 16.6979 16.3748 16.5891 16.5013 16.4743C16.6267 16.3605 16.7512 16.224 16.8502 16.0731C16.9361 15.9423 17.0648 15.7088 17.0646 15.4203C17.0643 15.0595 16.9472 14.6845 16.7927 14.3806C16.6424 14.0851 16.3967 13.7388 16.0425 13.5344C14.6363 12.7228 13.1715 12.0232 11.7261 11.354L11.411 12.0346L11.7261 11.354C11.3368 11.1737 10.9462 11.2685 10.7312 11.3381C10.4923 11.4153 10.2499 11.5378 10.0637 11.633ZM3.31508 29.6345C-3.14801 18.1 3.15806 3.90391 15.9993 1.18737C27.8583 -1.32137 38.3523 7.31965 39.1466 18.4557C39.9992 30.4104 30.4629 40.0874 18.5175 39.1927C11.9001 38.6971 6.83861 35.4328 3.31508 29.6345Z" fill="white" stroke="#EB3235" stroke-width="1.5"/>
<path d="M13.6719 26.6619C14.0958 24.7133 14.7879 22.9864 16.3498 21.8141C20.1286 18.9778 24.4992 21.0452 25.9125 25.2155C26.1849 26.0192 26.2899 26.8795 26.499 27.8365C22.1431 27.8365 17.9899 27.8365 13.7074 27.8365C13.6912 27.4794 13.6749 27.1189 13.6719 26.6619Z" fill="white"/>
<path d="M23.8559 14.4527C25.6628 13.505 27.41 12.6174 29.1368 11.7402C30.3609 13.189 30.3359 13.3127 28.423 14.4938C28.9778 14.4938 29.2858 14.4846 29.593 14.4963C29.9249 14.5089 30.256 14.5411 30.7267 14.5747C30.7267 15.0718 30.7988 15.5285 30.6986 15.9436C30.642 16.1783 30.2973 16.5201 30.0905 16.5144C28.245 16.464 26.3948 16.4103 24.5596 16.224C23.5637 16.1229 23.3544 15.501 23.8559 14.4527Z" fill="white"/>
<path d="M10.4418 12.2249C10.7922 12.1035 11.1702 11.9223 11.4124 12.0344C12.855 12.7024 14.2938 13.3902 15.669 14.1839C16.0242 14.3889 16.3156 14.9974 16.316 15.4208C16.3162 15.7016 15.7655 16.1987 15.4287 16.2285C13.4465 16.4038 11.4546 16.4703 9.49471 16.572C9.02838 14.6039 9.02838 14.6039 11.3253 14.4185C10.5988 13.8302 9.40628 13.4517 10.4418 12.2249Z" fill="white"/>
</svg>
