<svg width="40" height="40" viewBox="0 0 40 40" fill="none" xmlns="http://www.w3.org/2000/svg">
<path d="M2.66728 30.0125C-4.04799 18.045 2.49221 3.27792 15.8441 0.453364C28.1643 -2.15296 39.0692 6.82879 39.8947 18.4021C40.7792 30.8041 30.8723 40.8699 18.4615 39.9404C11.5823 39.4252 6.30815 36.0104 2.66728 30.0125ZM13.6584 26.7582C13.6747 27.1188 13.691 27.4793 13.7072 27.8364C17.9897 27.8364 22.1429 27.8364 26.4988 27.8364C26.2898 26.8794 26.1847 26.0191 25.9123 25.2154C24.499 21.0451 20.1284 18.9777 16.3497 21.814C14.7877 22.9863 14.0957 24.7132 13.6584 26.7582ZM23.7975 14.5127C23.3556 15.5009 23.565 16.1228 24.5608 16.2239C26.3961 16.4102 28.2462 16.4639 30.0918 16.5143C30.2986 16.52 30.6432 16.1783 30.6999 15.9435C30.8001 15.5284 30.728 15.0717 30.728 14.5746C30.2573 14.541 29.9261 14.5088 29.5943 14.4962C29.2871 14.4845 28.9791 14.4937 28.4243 14.4937C30.3372 13.3126 30.3621 13.1889 29.1381 11.7401C27.4113 12.6173 25.6641 13.5049 23.7975 14.5127ZM10.4051 12.3006C9.40488 13.4515 10.5974 13.8301 11.3239 14.4184C9.02698 14.6038 9.02698 14.6038 9.49331 16.5719C11.4532 16.4702 13.4451 16.4037 15.4273 16.2283C15.7641 16.1985 16.3148 15.7015 16.3146 15.4206C16.3142 14.9972 16.0228 14.3887 15.6676 14.1837C14.2924 13.3901 12.8536 12.7023 11.411 12.0343C11.1688 11.9222 10.7908 12.1034 10.4051 12.3006Z" fill="#EB3235"/>
</svg>
