<svg width="41" height="40" viewBox="0 0 41 40" fill="none" xmlns="http://www.w3.org/2000/svg">
<path d="M13.2664 24.187H12.4764L12.5174 24.9759L12.6114 26.7858L12.6484 27.4969H13.3604H13.3632H13.3659H13.3687H13.3714H13.3742H13.3769H13.3797H13.3824H13.3851H13.3879H13.3906H13.3933H13.396H13.3988H13.4015H13.4042H13.4069H13.4096H13.4123H13.415H13.4177H13.4204H13.4231H13.4258H13.4285H13.4312H13.4338H13.4365H13.4392H13.4419H13.4445H13.4472H13.4499H13.4525H13.4552H13.4578H13.4605H13.4631H13.4658H13.4684H13.4711H13.4737H13.4763H13.479H13.4816H13.4842H13.4869H13.4895H13.4921H13.4947H13.4973H13.4999H13.5025H13.5051H13.5077H13.5103H13.5129H13.5155H13.5181H13.5207H13.5233H13.5259H13.5285H13.531H13.5336H13.5362H13.5388H13.5413H13.5439H13.5464H13.549H13.5516H13.5541H13.5567H13.5592H13.5618H13.5643H13.5668H13.5694H13.5719H13.5744H13.577H13.5795H13.582H13.5845H13.5871H13.5896H13.5921H13.5946H13.5971H13.5996H13.6021H13.6046H13.6071H13.6096H13.6121H13.6146H13.6171H13.6196H13.6221H13.6245H13.627H13.6295H13.632H13.6344H13.6369H13.6394H13.6418H13.6443H13.6468H13.6492H13.6517H13.6541H13.6566H13.659H13.6615H13.6639H13.6664H13.6688H13.6712H13.6737H13.6761H13.6785H13.6809H13.6834H13.6858H13.6882H13.6906H13.693H13.6955H13.6979H13.7003H13.7027H13.7051H13.7075H13.7099H13.7123H13.7147H13.7171H13.7195H13.7218H13.7242H13.7266H13.729H13.7314H13.7337H13.7361H13.7385H13.7409H13.7432H13.7456H13.748H13.7503H13.7527H13.755H13.7574H13.7597H13.7621H13.7644H13.7668H13.7691H13.7715H13.7738H13.7761H13.7785H13.7808H13.7831H13.7855H13.7878H13.7901H13.7924H13.7948H13.7971H13.7994H13.8017H13.804H13.8063H13.8086H13.811H13.8133H13.8156H13.8179H13.8202H13.8225H13.8248H13.827H13.8293H13.8316H13.8339H13.8362H13.8385H13.8408H13.843H13.8453H13.8476H13.8499H13.8521H13.8544H13.8567H13.8589H13.8612H13.8635H13.8657H13.868H13.8702H13.8725H13.8747H13.877H13.8792H13.8815H13.8837H13.886H13.8882H13.8905H13.8927H13.8949H13.8972H13.8994H13.9016H13.9039H13.9061H13.9083H13.9105H13.9128H13.915H13.9172H13.9194H13.9216H13.9239H13.9261H13.9283H13.9305H13.9327H13.9349H13.9371H13.9393H13.9415H13.9437H13.9459H13.9481H13.9503H13.9525H13.9547H13.9569H13.959H13.9612H13.9634H13.9656H13.9678H13.97H13.9721H13.9743H13.9765H13.9787H13.9808H13.983H13.9852H13.9873H13.9895H13.9917H13.9938H13.996H13.9982H14.0003H14.0025H14.0046H14.0068H14.0089H14.0111H14.0132H14.0154H14.0175H14.0197H14.0218H14.0239H14.0261H14.0282H14.0304H14.0325H14.0346H14.0368H14.0389H14.041H14.0432H14.0453H14.0474H14.0495H14.0517H14.0538H14.0559H14.058H14.0601H14.0623H14.0644H14.0665H14.0686H14.0707H14.0728H14.0749H14.077H14.0792H14.0813H14.0834H14.0855H14.0876H14.0897H14.0918H14.0939H14.096H14.0981H14.1001H14.1022H14.1043H14.1064H14.1085H14.1106H14.1127H14.1148H14.1169H14.1189H14.121H14.1231H14.1252H14.1273H14.1293H14.1314H14.1335H14.1356H14.1376H14.1397H14.1418H14.1439H14.1459H14.148H14.1501H14.1521H14.1542H14.1563H14.1583H14.1604H14.1624H14.1645H14.1666H14.1686H14.1707H14.1727H14.1748H14.1768H14.1789H14.1809H14.183H14.185H14.1871H14.1891H14.1912H14.1932H14.1953H14.1973H14.1994H14.2014H14.2034H14.2055H14.2075H14.2096H14.2116H14.2136H14.2157H14.2177H14.2197H14.2218H14.2238H14.2258H14.2279H14.2299H14.2319H14.234H14.236H14.238H14.24H14.2421H14.2441H14.2461H14.2481H14.2501H14.2522H14.2542H14.2562H14.2582H14.2602H14.2623H14.2643H14.2663H14.2683H14.2703H14.2723H14.2744H14.2764H14.2784H14.2804H14.2824H14.2844H14.2864H14.2884H14.2904H14.2924H14.2944H14.2964H14.2985H14.3005H14.3025H14.3045H14.3065H14.3085H14.3105H14.3125H14.3145H14.3165H14.3185H14.3205H14.3225H14.3245H14.3265H14.3285H14.3305H14.3324H14.3344H14.3364H14.3384H14.3404H14.3424H14.3444H14.3464H14.3484H14.3504H14.3524H14.3544H14.3563H14.3583H14.3603H14.3623H14.3643H14.3663H14.3683H14.3703H14.3722H14.3742H14.3762H14.3782H14.3802H14.3822H14.3842H14.3861H14.3881H14.3901H14.3921H14.3941H14.396H14.398H14.4H14.402H14.404H14.4059H14.4079H14.4099H14.4119H14.4139H14.4158H14.4178H14.4198H14.4218H14.4238H14.4257H14.4277H14.4297H14.4317H14.4336H14.4356H14.4376H14.4396H14.4415H14.4435H14.4455H14.4475H14.4494H14.4514H14.4534H14.4554H14.4573H14.4593H14.4613H14.4633H14.4652H14.4672H14.4692H14.4711H14.4731H14.4751H14.4771H14.479H14.481H14.483H14.485H14.4869H14.4889H14.4909H14.4928H14.4948H14.4968H14.4988H14.5007H14.5027H14.5047C15.6914 27.4969 16.8782 27.497 18.0651 27.4971C21.0794 27.4975 24.094 27.4978 27.1085 27.4961C27.4699 27.4959 27.8181 27.4864 28.1097 27.4282C28.4082 27.3686 28.7761 27.233 29.0193 26.875C29.2464 26.5407 29.2625 26.1568 29.2431 25.8597C29.223 25.5503 29.1513 25.1828 29.0613 24.7753L28.9314 24.187H28.3289L18.3985 24.187H18.3887H18.3788H18.3689H18.3591H18.3492H18.3394H18.3295H18.3196H18.3098H18.2999H18.2901H18.2802H18.2703H18.2605H18.2506H18.2408H18.2309H18.221H18.2112H18.2013H18.1914H18.1816H18.1717H18.1619H18.152H18.1421H18.1323H18.1224H18.1126H18.1027H18.0928H18.083H18.0731H18.0632H18.0534H18.0435H18.0337H18.0238H18.0139H18.0041H17.9942H17.9843H17.9745H17.9646H17.9548H17.9449H17.935H17.9252H17.9153H17.9054H17.8956H17.8857H17.8758H17.866H17.8561H17.8462H17.8364H17.8265H17.8166H17.8068H17.7969H17.787H17.7772H17.7673H17.7574H17.7476H17.7377H17.7278H17.718H17.7081H17.6982H17.6884H17.6785H17.6686H17.6588H17.6489H17.639H17.6291H17.6193H17.6094H17.5995H17.5897H17.5798H17.5699H17.56H17.5502H17.5403H17.5304H17.5205H17.5107H17.5008H17.4909H17.481H17.4712H17.4613H17.4514H17.4415H17.4317H17.4218H17.4119H17.402H17.3921H17.3823H17.3724H17.3625H17.3526H17.3427H17.3329H17.323H17.3131H17.3032H17.2933H17.2834H17.2736H17.2637H17.2538H17.2439H17.234H17.2241H17.2142H17.2044H17.1945H17.1846H17.1747H17.1648H17.1549H17.145H17.1351H17.1252H17.1153H17.1055H17.0956H17.0857H17.0758H17.0659H17.056H17.0461H17.0362H17.0263H17.0164H17.0065H16.9966H16.9867H16.9768H16.9669H16.957H16.9471H16.9372H16.9273H16.9174H16.9075H16.8976H16.8877H16.8778H16.8679H16.858H16.8481H16.8382H16.8283H16.8184H16.8085H16.7985H16.7886H16.7787H16.7688H16.7589H16.749H16.7391H16.7292H16.7193H16.7093H16.6994H16.6895H16.6796H16.6697H16.6598H16.6498H16.6399H16.63H16.6201H16.6102H16.6002H16.5903H16.5804H16.5705H16.5605H16.5506H16.5407H16.5308H16.5208H16.5109H16.501H16.4911H16.4811H16.4712H16.4613H16.4513H16.4414H16.4315H16.4215H16.4116H16.4017H16.3917H16.3818H16.3718H16.3619H16.352H16.342H16.3321H16.3221H16.3122H16.3022H16.2923H16.2824H16.2724H16.2625H16.2525H16.2426H16.2326H16.2227H16.2127H16.2028H16.1928H16.1829H16.1729H16.163H16.153H16.143H16.1331H16.1231H16.1132H16.1032H16.0932H16.0833H16.0733H16.0634H16.0534H16.0434H16.0335H16.0235H16.0135H16.0036H15.9936H15.9836H15.9736H15.9637H15.9537H15.9437H15.9337H15.9238H15.9138H15.9038H15.8938H15.8838H15.8739H15.8639H15.8539H15.8439H15.8339H15.8239H15.814H15.804H15.794H15.784H15.774H15.764H15.754H15.744H15.734H15.724H15.714H15.704H15.694H15.684H15.674H15.664H15.654H15.644H15.634H15.624H15.614H15.604H15.594H15.584H15.574H15.564H15.5539H15.5439H15.5339H15.5239H15.5139H15.5039H15.4938H15.4838H15.4738H15.4638H15.4537H15.4437H15.4337H15.4237H15.4136H15.4036H15.3936H15.3835H15.3735H15.3635H15.3534H15.3434H15.3334H15.3233H15.3133H15.3032H15.2932H15.2831H15.2731H15.2631H15.253H15.243H15.2329H15.2229H15.2128H15.2028H15.1927H15.1826H15.1726H15.1625H15.1525H15.1424H15.1323H15.1223H15.1122H15.1022H15.0921H15.082H15.0719H15.0619H15.0518H15.0417H15.0317H15.0216H15.0115H15.0014H14.9913H14.9813H14.9712H14.9611H14.951H14.9409H14.9308H14.9207H14.9107H14.9006H14.8905H14.8804H14.8703H14.8602H14.8501H14.84H14.8299H14.8198H14.8097H14.7996H14.7895H14.7794H14.7693H14.7591H14.749H14.7389H14.7288H14.7187H14.7086H14.6985H14.6883H14.6782H14.6681H14.658H14.6478H14.6377H14.6276H14.6175H14.6073H14.5972H14.5871H14.5769H14.5668H14.5566H14.5465H14.5364H14.5262H14.5161H14.5059H14.4958H14.4856H14.4755H14.4653H14.4552H14.445H14.4349H14.4247H14.4146H14.4044H14.3942H14.3841H14.3739H14.3637H14.3536H14.3434H14.3332H14.3231H14.3129H14.3027H14.2925H14.2824H14.2722H14.262H14.2518H14.2416H14.2314H14.2212H14.2111H14.2009H14.1907H14.1805H14.1703H14.1601H14.1499H14.1397H14.1295H14.1193H14.1091H14.0989H14.0887H14.0784H14.0682H14.058H14.0478H14.0376H14.0274H14.0171H14.0069H13.9967H13.9865H13.9763H13.966H13.9558H13.9456H13.9353H13.9251H13.9149H13.9046H13.8944H13.8841H13.8739H13.8636H13.8534H13.8432H13.8329H13.8226H13.8124H13.8021H13.7919H13.7816H13.7714H13.7611H13.7508H13.7406H13.7303H13.72H13.7098H13.6995H13.6892H13.6789H13.6687H13.6584H13.6481H13.6378H13.6275H13.6172H13.607H13.5967H13.5864H13.5761H13.5658H13.5555H13.5452H13.5349H13.5246H13.5143H13.504H13.4937H13.4833H13.473H13.4627H13.4524H13.4421H13.4318H13.4214H13.4111H13.4008H13.3905H13.3801H13.3698H13.3595H13.3491H13.3388H13.3285H13.3181H13.3078H13.2974H13.2871H13.2767H13.2664ZM14.8665 20.0608L14.9781 20.0138L15.0693 19.934C15.1244 19.8857 15.1706 19.8482 15.2255 19.8035C15.2642 19.772 15.3074 19.7369 15.3611 19.6921C15.4721 19.5993 15.6051 19.4826 15.7294 19.3409C16.1472 18.8645 16.4774 18.3171 16.6081 17.691C16.7415 17.052 16.6537 16.3943 16.338 15.7345C16.0126 15.0544 15.5458 14.5535 14.9388 14.2519C14.3438 13.9561 13.6806 13.8847 13.0099 13.9375C12.298 13.9937 11.7044 14.2377 11.2323 14.6638C10.7727 15.0786 10.4781 15.6211 10.273 16.1946C10.0601 16.7895 10.0262 17.3655 10.1779 17.918C10.3264 18.4593 10.6366 18.9185 11.0129 19.3174C11.4977 19.8314 12.0676 20.2068 12.7516 20.345C13.433 20.4827 14.1392 20.367 14.8665 20.0608ZM31.5551 16.7161L31.5557 16.6661L31.5496 16.6164C31.4638 15.9155 31.2144 15.2843 30.7485 14.8017C30.2799 14.3163 29.6559 14.0472 28.9439 13.9582C27.3276 13.7562 25.9646 14.4307 25.3513 15.8166L26.0001 16.1037L25.3513 15.8166C25.066 16.4613 24.9894 17.113 25.1203 17.7376C25.25 18.3567 25.573 18.9002 26.009 19.3556C26.402 19.7661 26.8877 20.129 27.4707 20.3135C28.0693 20.503 28.7214 20.488 29.3942 20.2152C30.0897 19.9331 30.6776 19.5667 31.0614 18.9399C31.4328 18.3333 31.545 17.591 31.5551 16.7161ZM3.36035 27.9447C-1.5249 16.5127 4.58852 4.14768 16.5624 1.2791C27.5372 -1.35015 38.3105 6.12798 39.8458 17.083C41.3133 27.5536 34.8834 36.6619 24.5733 38.8573C16.0751 40.6668 7.0976 36.0861 3.36035 27.9447Z" fill="white" stroke="#FFBA32" stroke-width="1.5"/>
</svg>
