<svg width="41" height="40" viewBox="0 0 41 40" fill="none" xmlns="http://www.w3.org/2000/svg">
<path d="M2.67458 28.2485C-2.3964 16.3961 3.94909 3.52965 16.3876 0.549739C27.795 -2.18313 38.9921 5.58774 40.5886 16.9789C42.111 27.8416 35.4224 37.314 24.7295 39.5908C15.8738 41.4765 6.55099 36.7042 2.67458 28.2485ZM18.3985 24.937C16.7157 24.937 15.033 24.937 13.2664 24.937C13.3041 25.6623 13.3303 26.1674 13.3604 26.7469C13.8315 26.7469 14.1681 26.7469 14.5047 26.7469C18.7058 26.7469 22.9069 26.7484 27.1081 26.7461C28.562 26.7453 28.6894 26.5699 28.3289 24.937C25.1152 24.937 21.8707 24.937 18.3985 24.937ZM14.5754 19.3696C14.7734 19.1963 14.9935 19.0424 15.1655 18.8463C15.8893 18.021 16.1654 17.1115 15.6615 16.0582C15.1336 14.9549 14.2363 14.5932 13.0689 14.6852C11.9361 14.7745 11.3409 15.436 10.9791 16.4472C10.6442 17.3835 10.913 18.1186 11.5584 18.8028C12.3748 19.6682 13.3143 19.9007 14.5754 19.3696ZM30.8052 16.7075C30.6626 15.5431 30.0092 14.8472 28.8509 14.7024C27.5112 14.535 26.4965 15.0821 26.0371 16.1201C25.5817 17.1493 25.834 18.0884 26.5508 18.837C27.2226 19.5387 28.0816 19.9381 29.1123 19.5201C30.3663 19.0117 30.786 18.3744 30.8052 16.7075Z" fill="#FFBA32"/>
</svg>
