<svg width="72" height="72" viewBox="0 0 72 72" fill="none" xmlns="http://www.w3.org/2000/svg">
<path fill-rule="evenodd" clip-rule="evenodd" d="M40.5414 59.7516C40.7664 59.5265 41.0716 59.4 41.3898 59.4H49.2C55.8276 59.4 61.2 54.0276 61.2 47.4V28.2C61.2 21.5724 55.8276 16.2 49.2 16.2H18C11.3724 16.2 6 21.5724 6 28.2V47.4C6 54.0276 11.3724 59.4 18 59.4H25.0722C25.3904 59.4 25.6956 59.5265 25.9206 59.7516L31.1094 64.9404C31.672 65.503 32.4351 65.819 33.2307 65.819C34.0263 65.819 34.7894 65.503 35.352 64.9404L40.5414 59.7516Z" fill="#7FA9AE"/>
<path fill-rule="evenodd" clip-rule="evenodd" d="M16.8008 27.6C16.8008 26.9634 17.0536 26.353 17.5037 25.9029C17.9538 25.4528 18.5643 25.2 19.2008 25.2H27.6008C28.2373 25.2 28.8478 25.4528 29.2978 25.9029C29.7479 26.353 30.0008 26.9634 30.0008 27.6C30.0008 28.2365 29.7479 28.8469 29.2978 29.297C28.8478 29.7471 28.2373 30 27.6008 30H19.2008C18.5643 30 17.9538 29.7471 17.5037 29.297C17.0536 28.8469 16.8008 28.2365 16.8008 27.6ZM16.8008 46.8C16.8008 46.1634 17.0536 45.553 17.5037 45.1029C17.9538 44.6528 18.5643 44.4 19.2008 44.4H48.0008C48.6373 44.4 49.2478 44.6528 49.6978 45.1029C50.1479 45.553 50.4008 46.1634 50.4008 46.8C50.4008 47.4365 50.1479 48.0469 49.6978 48.497C49.2478 48.9471 48.6373 49.2 48.0008 49.2H19.2008C18.5643 49.2 17.9538 48.9471 17.5037 48.497C17.0536 48.0469 16.8008 47.4365 16.8008 46.8ZM16.8008 37.2C16.8008 36.5634 17.0536 35.953 17.5037 35.5029C17.9538 35.0528 18.5643 34.8 19.2008 34.8H31.8008C32.4373 34.8 33.0478 35.0528 33.4978 35.5029C33.9479 35.953 34.2008 36.5634 34.2008 37.2C34.2008 37.8365 33.9479 38.4469 33.4978 38.897C33.0478 39.3471 32.4373 39.6 31.8008 39.6H19.2008C18.5643 39.6 17.9538 39.3471 17.5037 38.897C17.0536 38.4469 16.8008 37.8365 16.8008 37.2Z" fill="white"/>
<path d="M65.9984 22.8C65.9984 32.0784 58.4768 39.6 49.1984 39.6C39.92 39.6 32.3984 32.0784 32.3984 22.8C32.3984 13.5216 39.92 6 49.1984 6C58.4768 6 65.9984 13.5216 65.9984 22.8Z" fill="#FFBA33"/>
<path fill-rule="evenodd" clip-rule="evenodd" d="M46.6517 17.427C47.4917 15.009 50.9117 15.009 51.7517 17.427L52.1897 18.687L53.5235 18.714C56.0825 18.7662 57.1397 22.0188 55.0997 23.565L54.0365 24.3708L54.4229 25.6476C55.1645 28.098 52.3979 30.108 50.2967 28.6458L49.2017 27.8838L48.1067 28.6458C46.0055 30.108 43.2389 28.098 43.9805 25.6476L44.3663 24.3708L43.3043 23.565C41.2643 22.0188 42.3203 18.7662 44.8799 18.714L46.2137 18.687L46.6517 17.427Z" fill="white"/>
</svg>
