<svg width="41" height="40" viewBox="0 0 41 40" fill="none" xmlns="http://www.w3.org/2000/svg">
<path d="M28.7514 23.4517L28.7473 23.4494C28.3214 23.2135 27.7901 23.0611 27.2669 23.342C26.8407 23.5708 26.6011 24.013 26.4474 24.3184C25.3216 26.5548 23.3658 27.6312 20.9371 27.6587C18.5097 27.6862 16.5223 26.6959 15.3023 24.489C15.1475 24.209 14.9934 23.9364 14.8321 23.7294C14.6674 23.5181 14.4096 23.2616 14.0114 23.1914C13.6364 23.1252 13.3049 23.2568 13.0709 23.3748C12.8272 23.4976 12.5487 23.6813 12.2444 23.8865L11.7859 24.1958L11.9459 24.7252C12.4816 26.4978 13.5576 27.8707 14.9858 28.9632C19.5796 32.4771 26.4944 31.0533 29.2433 25.9708L28.5836 25.614L29.2433 25.9708C29.2654 25.9298 29.2914 25.8859 29.3283 25.8231C29.3623 25.7653 29.4051 25.6925 29.4461 25.6154C29.525 25.467 29.6276 25.2486 29.6633 24.9899C29.7022 24.7075 29.6584 24.3981 29.4767 24.1037C29.3066 23.828 29.0483 23.6186 28.7514 23.4517ZM30.2821 12.7947L30.1833 12.693L30.0542 12.6344C29.2536 12.2709 28.4458 12.1155 27.6873 12.2349C26.9144 12.3565 26.2507 12.7554 25.7557 13.3912C24.8672 14.5325 24.8176 16.2433 25.7199 17.3676C26.3191 18.1142 27.1034 18.5897 27.9588 18.699C28.8203 18.8091 29.6798 18.5375 30.3901 17.9263C31.1678 17.2571 31.6547 16.4277 31.6255 15.4576C31.5973 14.5171 31.0871 13.6235 30.2821 12.7947ZM14.5576 12.3928L14.4328 12.3299L14.2937 12.3162C14.212 12.3082 14.1205 12.2978 14.023 12.2866C13.7799 12.2589 13.4992 12.2269 13.2381 12.2169C12.5985 12.1923 11.9958 12.3303 11.4836 12.6564C10.9697 12.9836 10.5951 13.4699 10.3649 14.0602C9.93227 15.1694 9.86351 16.5307 10.9366 17.6134C11.3558 18.0363 11.8549 18.4024 12.4511 18.5871C13.0625 18.7765 13.7186 18.7571 14.404 18.498L14.1388 17.7964L14.404 18.4979C15.7031 18.0068 16.4652 16.9982 16.6025 15.6781L16.6025 15.6781C16.6775 14.9573 16.5286 14.2943 16.1481 13.7178C15.7768 13.1551 15.219 12.7259 14.5576 12.3928ZM39.3443 25.2764C38.028 29.2618 36.0353 32.4088 33.3819 34.7035C30.7275 36.9991 27.3729 38.4757 23.2792 39.0583C13.5269 40.4464 4.54322 34.1621 2.11975 24.5452C-0.636813 13.6066 7.01663 2.45074 18.167 0.927431C27.8439 -0.394578 37.5044 5.77717 39.695 16.1078C40.3347 19.1243 40.2352 22.185 39.3443 25.2764Z" fill="white" stroke="#C3D842" stroke-width="1.5"/>
<path d="M28.4705 24.1306C29.3074 24.6245 28.8246 25.1686 28.5838 25.614C26.0581 30.2839 19.6757 31.6062 15.4417 28.3675C14.1148 27.3525 13.1464 26.104 12.6641 24.5082C13.9088 23.6684 14.0046 23.6913 14.6461 24.8518C16.0151 27.3281 18.2759 28.4389 20.9458 28.4086C23.626 28.3783 25.8533 27.167 27.1175 24.6556C27.4392 24.0167 27.7187 23.7368 28.4705 24.1306Z" fill="white" fill-opacity="0.866667"/>
<path d="M29.8147 13.3723C31.2246 14.841 31.2303 16.2142 29.9014 17.3577C28.777 18.3252 27.299 18.1363 26.3053 16.8981C25.6374 16.0658 25.6559 14.7408 26.348 13.8519C27.1133 12.8689 28.3341 12.6767 29.8147 13.3723Z" fill="white"/>
<path d="M14.3041 13.1028C15.3944 13.6534 15.9749 14.4747 15.8578 15.6005C15.7501 16.6364 15.1757 17.4049 14.14 17.7964C13.0596 18.2049 12.2017 17.8231 11.4706 17.0854C10.6833 16.2912 10.6935 15.2849 11.0649 14.3327C11.4244 13.4108 12.1843 12.9269 13.2106 12.9663C13.5483 12.9793 13.8846 13.0295 14.3041 13.1028Z" fill="white"/>
</svg>
