<svg width="41" height="40" viewBox="0 0 41 40" fill="none" xmlns="http://www.w3.org/2000/svg">
<path d="M40.061 25.498C37.3599 33.6887 31.8182 38.6005 23.3849 39.8009C13.2359 41.2454 3.90547 34.7006 1.39249 24.7285C-1.47489 13.3501 6.47839 1.7673 18.0655 0.184334C28.1142 -1.18847 38.153 5.22017 40.4287 15.9522C41.0951 19.0946 40.9893 22.2847 40.061 25.498ZM28.3838 24.1055C27.7185 23.7369 27.439 24.0167 27.1173 24.6556C25.853 27.167 23.6258 28.3783 20.9456 28.4087C18.2757 28.4389 16.0149 27.3282 14.6459 24.8519C14.0044 23.6913 13.9086 23.6685 12.6639 24.5083C13.1461 26.104 14.1146 27.3526 15.4415 28.3675C19.6755 31.6062 26.0579 30.2839 28.5836 25.614C28.8244 25.1687 29.3072 24.6246 28.3838 24.1055ZM29.7441 13.3173C28.3336 12.6768 27.1128 12.8689 26.3475 13.8519C25.6555 14.7409 25.6369 16.0659 26.3049 16.8982C27.2985 18.1364 28.7766 18.3252 29.901 17.3578C31.2299 16.2143 31.2241 14.841 29.7441 13.3173ZM14.2203 13.0626C13.8833 13.0295 13.547 12.9793 13.2093 12.9663C12.1831 12.9269 11.4231 13.4108 11.0636 14.3327C10.6923 15.2849 10.6821 16.2912 11.4693 17.0854C12.2004 17.8231 13.0583 18.2049 14.1388 17.7964C15.1744 17.4049 15.7488 16.6364 15.8566 15.6005C15.9736 14.4747 15.3931 13.6534 14.2203 13.0626Z" fill="#C3D842"/>
</svg>
