<svg width="15" height="16" viewBox="0 0 15 16" fill="none" xmlns="http://www.w3.org/2000/svg">
<path d="M7.50087 12L4.64618 7.7C4.17892 7.11153 3.87802 6.39358 3.77851 5.62975C3.679 4.86591 3.78498 4.08764 4.08411 3.38558C4.38324 2.68351 4.86321 2.08654 5.46812 1.6642C6.07303 1.24185 6.77798 1.01151 7.50087 1C8.50294 1.01056 9.46024 1.4443 10.1631 2.20621C10.866 2.96812 11.2571 3.9961 11.2509 5.065C11.2513 5.99747 10.9536 6.90222 10.4071 7.63L7.50087 12ZM7.50087 2C6.74705 2.00923 6.02748 2.33719 5.50016 2.91185C4.97284 3.48652 4.68087 4.26091 4.68837 5.065C4.69151 5.79891 4.93905 6.50775 5.38681 7.065L7.50087 10.26L9.67118 7C10.0837 6.45072 10.31 5.7688 10.3134 5.065C10.3209 4.26091 10.0289 3.48652 9.50159 2.91185C8.97426 2.33719 8.25469 2.00923 7.50087 2Z" fill="#8C8C8C"/>
<path d="M7.5 5.5C8.01777 5.5 8.4375 5.05228 8.4375 4.5C8.4375 3.94772 8.01777 3.5 7.5 3.5C6.98223 3.5 6.5625 3.94772 6.5625 4.5C6.5625 5.05228 6.98223 5.5 7.5 5.5Z" fill="#8C8C8C"/>
<path d="M13.125 6H12.1875V7H13.125V14H1.875V7H2.8125V6H1.875C1.62636 6 1.3879 6.10536 1.21209 6.29289C1.03627 6.48043 0.9375 6.73478 0.9375 7V14C0.9375 14.2652 1.03627 14.5196 1.21209 14.7071C1.3879 14.8946 1.62636 15 1.875 15H13.125C13.3736 15 13.6121 14.8946 13.7879 14.7071C13.9637 14.5196 14.0625 14.2652 14.0625 14V7C14.0625 6.73478 13.9637 6.48043 13.7879 6.29289C13.6121 6.10536 13.3736 6 13.125 6Z" fill="#8C8C8C"/>
</svg>
