<svg width="1764" height="919" viewBox="0 0 1764 919" fill="none" xmlns="http://www.w3.org/2000/svg">
<path d="M1477 645.826H286C286 179.426 656.5 16.6099 837 0.10978C1343 -7.89022 1474.33 423.326 1477 645.826Z" fill="#FEB818"/>
<path d="M1442.06 635.434V646.347H880.926V30C889.507 35.3142 885.63 37.908 882.619 38.5406V41.3875H885.442C887.136 41.8619 889.507 43.0956 885.442 44.2343C881.377 45.3731 882.619 48.5046 883.748 49.9281C895.039 49.9281 889.582 56.5708 885.442 59.8921C884.087 61.4104 884.877 64.3206 885.442 65.5858C903.507 67.4838 894.098 76.8152 887.136 81.2436C882.619 82.0028 885.254 82.8252 887.136 83.1415V86.4629H894.474C893.12 91.0179 895.039 92.7893 896.168 93.1056C904.749 91.5872 905.765 95.6361 905.2 97.8504C899.329 99.3687 902.754 101.33 905.2 102.121C917.394 100.602 915.174 106.549 912.539 109.712C926.991 107.055 925.335 113.034 922.701 116.355C916.378 117.114 917.432 120.467 918.749 122.049C927.33 131.159 933.238 152.732 935.12 162.379C936.475 166.555 938.319 165.068 939.072 163.803C945.846 167.219 945.282 174.083 944.153 177.088C939.636 178.227 942.271 180.093 944.153 180.884C950.024 180.125 949.61 183.098 948.669 184.68C955.895 183.541 954.314 187.052 952.62 188.95C960.75 191.228 956.008 192.746 952.62 193.22C949.459 195.498 953.938 195.751 956.572 195.593C956.572 195.593 966.357 214.888 968.992 223.587C977.572 223.587 975.954 231.811 974.072 235.923C980.395 235.164 979.718 237.821 978.589 239.245C984.911 238.865 983.481 241.617 981.976 243.041C987.395 242.281 985.363 245.887 983.669 247.785C983.669 247.785 1000.98 290.33 1005.68 307.57C1006.59 310.606 1009.82 308.835 1011.33 307.57C1014.94 288.97 1018.48 299.82 1019.8 307.57C1025.22 306.431 1025.82 310.258 1025.44 312.314C1030.41 310.796 1029.39 313.58 1028.27 315.161C1031.88 314.782 1032.03 317.217 1031.65 318.483C1031.65 318.483 1037.3 325.442 1033.35 327.972V349.324H1038.99L1033.35 357.39H1054.23V353.12C1063.72 351.981 1058.19 350.115 1054.23 349.324V347.426C1060.11 347.046 1058.94 345.053 1057.62 344.104V342.207C1064.85 343.345 1064.4 339.518 1063.27 337.462C1069.59 338.98 1068.91 335.564 1067.78 333.666C1065.52 328.352 1070.23 323.544 1072.86 321.804C1080.99 328.636 1079.64 332.559 1077.94 333.666C1075.23 338.221 1080.2 338.094 1083.02 337.462C1081.22 341.637 1084.53 342.048 1086.41 341.732L1088.67 344.104C1083.25 347.141 1089.05 346.951 1092.62 346.477V349.324C1081.78 351.601 1088.11 352.803 1092.62 353.12C1098.04 368.682 1102.41 361.186 1103.91 355.492H1107.86C1107.41 349.419 1110.31 345.37 1111.82 344.104C1119.04 353.214 1121.22 344.421 1121.41 338.885H1126.49C1125.59 331.294 1129.13 328.447 1131.01 327.972C1133.72 333.666 1137.03 331.61 1138.35 329.87C1138.35 321.899 1143.24 321.804 1145.69 322.753C1144.78 318.578 1147.57 313.105 1149.07 310.891C1155.85 320.001 1158.67 312.473 1159.24 307.57C1173.24 307.19 1168.08 303.616 1163.75 301.876C1170.53 301.496 1170.71 296.34 1169.96 293.81H1174.48V289.539H1177.3C1180.01 288.401 1178.43 286.534 1177.3 285.744C1174.14 280.429 1179.75 275.938 1182.95 274.356C1188.37 276.634 1189.34 282.897 1189.16 285.744C1184.64 288.401 1187.27 289.381 1189.16 289.539L1191.41 293.81H1194.8L1198.75 300.452C1205.98 300.452 1202.52 304.248 1199.88 306.146C1208.46 305.007 1209.48 309.784 1208.91 312.314C1210.27 318.008 1213.24 314.687 1214.56 312.314C1219.53 307.759 1220.77 317.376 1220.77 322.753C1227.99 321.235 1227.92 325.6 1226.98 327.972C1230.59 336.323 1233.38 331.452 1234.32 327.972C1236.58 324.556 1239.4 330.977 1240.53 334.615C1238.27 339.929 1241.47 339.676 1243.35 338.885L1249 346.477C1254.87 337.367 1257.46 348.375 1258.03 355.017H1260.85C1266.72 371.719 1272.71 360.079 1274.96 352.171C1284.9 352.171 1279.1 350.589 1274.96 349.798V346.477H1280.61V344.579H1278.35V341.732H1284V337.462H1290.21V333.191H1286.82C1288.17 325.6 1292.65 322.437 1294.72 321.804C1300.14 323.702 1301.5 330.186 1301.5 333.191H1299.24V337.462H1304.88V341.732C1313.92 341.352 1311.28 343.472 1308.83 344.579V346.477H1315.04C1317.3 346.477 1315.99 348.691 1315.04 349.798H1308.83V352.171H1312.22C1320.35 355.587 1323.89 371.624 1324.64 379.216C1331.87 379.975 1330.66 384.593 1329.16 386.807L1330.29 389.654H1333.67V392.501H1335.93V394.874H1337.63V400.567C1343.5 408.539 1346.47 419.705 1347.22 424.291C1349.93 431.503 1350.61 427.296 1350.61 424.291H1354.56V420.021H1357.95V416.225H1360.21V413.378H1358.51V409.582H1360.77C1363.03 400.852 1365.1 405.945 1365.85 409.582H1368.11V413.853H1365.85V416.225H1368.11V420.021H1372.63V423.817C1376.69 422.678 1376.2 426.189 1375.45 428.087C1381.77 425.43 1381.09 430.143 1379.96 432.832C1376.01 435.362 1370.48 439 1379.96 433.306C1389.45 427.613 1389.56 434.413 1388.43 438.526L1394.08 440.423V444.694H1400.29V449.913H1406.5V455.132H1413.27C1432.69 457.789 1421.36 464.464 1413.27 467.469V476.484C1424.56 476.484 1417.98 481.229 1413.27 483.601V508.748C1441.27 510.267 1424.94 518.554 1413.27 522.508V549.079C1425.92 547.181 1418.54 555.247 1413.27 559.517V581.818H1415.53V596.527H1418.92V608.863H1436.42C1440.93 608.863 1438.3 611.077 1436.42 612.185V624.521H1439.24V635.434H1442.06Z" fill="white"/>
<path d="M320.387 635.434V646.347H881.525V30C872.944 35.3142 876.821 37.908 879.832 38.5406V41.3875H877.009C875.315 41.8619 872.944 43.0956 877.009 44.2343C881.074 45.3731 879.832 48.5046 878.703 49.9281C867.412 49.9281 872.869 56.5708 877.009 59.8921C878.364 61.4104 877.573 64.3206 877.009 65.5858C858.944 67.4838 868.353 76.8152 875.315 81.2436C879.832 82.0028 877.197 82.8252 875.315 83.1415V86.4629H867.977C869.331 91.0179 867.412 92.7893 866.283 93.1056C857.702 91.5872 856.686 95.6361 857.251 97.8504C863.122 99.3687 859.697 101.33 857.251 102.121C845.057 100.602 847.277 106.549 849.912 109.712C835.46 107.055 837.116 113.034 839.75 116.355C846.073 117.114 845.019 120.467 843.702 122.049C835.121 131.159 829.212 152.732 827.331 162.379C825.976 166.555 824.132 165.068 823.379 163.803C816.605 167.219 817.169 174.083 818.298 177.088C822.815 178.227 820.18 180.093 818.298 180.884C812.427 180.125 812.841 183.098 813.782 184.68C806.556 183.541 808.137 187.052 809.83 188.95C801.701 191.228 806.443 192.746 809.83 193.22C812.992 195.498 808.513 195.751 805.879 195.593C805.879 195.593 796.094 214.888 793.459 223.587C784.878 223.587 786.497 231.811 788.379 235.923C782.056 235.164 782.733 237.821 783.862 239.245C777.54 238.865 778.97 241.617 780.475 243.041C775.056 242.281 777.088 245.887 778.782 247.785C778.782 247.785 761.469 290.33 756.765 307.57C755.862 310.606 752.625 308.835 751.12 307.57C747.507 288.97 743.969 299.82 742.652 307.57C737.233 306.431 736.63 310.258 737.007 312.314C732.039 310.796 733.055 313.58 734.184 315.161C730.571 314.782 730.421 317.217 730.797 318.483C730.797 318.483 725.152 325.442 729.103 327.972V349.324H723.458L729.103 357.39H708.216V353.12C698.732 351.981 704.264 350.115 708.216 349.324V347.426C702.345 347.046 703.512 345.053 704.829 344.104V342.207C697.603 343.345 698.055 339.518 699.184 337.462C692.861 338.98 693.538 335.564 694.667 333.666C696.925 328.352 692.221 323.544 689.587 321.804C681.457 328.636 682.812 332.559 684.506 333.666C687.216 338.221 682.248 338.094 679.425 337.462C681.232 341.637 677.92 342.048 676.038 341.732L673.78 344.104C679.199 347.141 673.404 346.951 669.828 346.477V349.324C680.667 351.601 674.344 352.803 669.828 353.12C664.409 368.682 660.043 361.186 658.538 355.492H654.586C655.038 349.419 652.14 345.37 650.634 344.104C643.408 353.214 641.226 344.421 641.037 338.885H635.957C636.86 331.294 633.322 328.447 631.441 327.972C628.731 333.666 625.419 331.61 624.102 329.87C624.102 321.899 619.209 321.804 616.763 322.753C617.666 318.578 614.881 313.105 613.376 310.891C606.601 320.001 603.779 312.473 603.214 307.57C589.214 307.19 594.37 303.616 598.698 301.876C591.924 301.496 591.736 296.34 592.488 293.81H587.972V289.539H585.149C582.44 288.401 584.02 286.534 585.149 285.744C588.311 280.429 582.703 275.938 579.504 274.356C574.085 276.634 573.106 282.897 573.294 285.744C577.811 288.401 575.176 289.381 573.294 289.539L571.036 293.81H567.649L563.698 300.452C556.472 300.452 559.934 304.248 562.568 306.146C553.988 305.007 552.972 309.784 553.536 312.314C552.181 318.008 549.208 314.687 547.891 312.314C542.923 307.759 541.681 317.376 541.681 322.753C534.455 321.235 534.53 325.6 535.471 327.972C531.858 336.323 529.073 331.452 528.132 327.972C525.874 324.556 523.052 330.977 521.923 334.615C524.181 339.929 520.982 339.676 519.1 338.885L513.455 346.477C507.584 337.367 504.987 348.375 504.422 355.017H501.6C495.729 371.719 489.745 360.079 487.487 352.171C477.551 352.171 483.347 350.589 487.487 349.798V346.477H481.841V344.579H484.099V341.732H478.454V337.462H472.244V333.191H475.632C474.277 325.6 469.798 322.437 467.728 321.804C462.309 323.702 460.954 330.186 460.954 333.191H463.212V337.462H457.567V341.732C448.534 341.352 451.169 343.472 453.615 344.579V346.477H447.405C445.147 346.477 446.465 348.691 447.405 349.798H453.615V352.171H450.228C442.099 355.587 438.561 371.624 437.808 379.216C430.583 379.975 431.787 384.593 433.292 386.807L432.163 389.654H428.776V392.501H426.518V394.874H424.824V400.567C418.953 408.539 415.98 419.705 415.227 424.291C412.518 431.503 411.84 427.296 411.84 424.291H407.889V420.021H404.501V416.225H402.243V413.378H403.937V409.582H401.679C399.421 400.852 397.351 405.945 396.598 409.582H394.34V413.853H396.598V416.225H394.34V420.021H389.824V423.817C385.759 422.678 386.248 426.189 387.001 428.087C380.678 425.43 381.356 430.143 382.485 432.832C386.437 435.362 391.969 439 382.485 433.306C373.001 427.613 372.888 434.413 374.017 438.526L368.372 440.423V444.694H362.162V449.913H355.952V455.132H349.178C329.758 457.789 341.086 464.464 349.178 467.469V476.484C337.888 476.484 344.474 481.229 349.178 483.601V508.748C321.178 510.267 337.511 518.554 349.178 522.508V549.079C336.533 547.181 343.909 555.247 349.178 559.517V581.818H346.92V596.527H343.533V608.863H326.032C321.516 608.863 324.151 611.077 326.032 612.185V624.521H323.21V635.434H320.387Z" fill="white"/>
<path d="M386.295 840.534H378.222L347.56 793.6V840.534H339.486V779.628H347.56L378.305 826.772V779.628H386.295V840.534ZM480.822 812.047C480.822 818.015 479.818 823.23 477.81 827.692C475.802 832.126 472.957 835.514 469.276 837.857C465.595 840.2 461.3 841.371 456.392 841.371C451.596 841.371 447.343 840.2 443.634 837.857C439.925 835.487 437.038 832.126 434.975 827.776C432.939 823.397 431.893 818.336 431.837 812.591V808.199C431.837 802.342 432.855 797.169 434.891 792.679C436.927 788.19 439.799 784.759 443.508 782.389C447.245 779.991 451.512 778.792 456.309 778.792C461.189 778.792 465.484 779.977 469.193 782.347C472.929 784.69 475.802 788.106 477.81 792.596C479.818 797.058 480.822 802.259 480.822 808.199V812.047ZM472.832 808.115C472.832 800.892 471.382 795.357 468.481 791.508C465.581 787.632 461.524 785.694 456.309 785.694C451.233 785.694 447.231 787.632 444.303 791.508C441.403 795.357 439.911 800.711 439.827 807.571V812.047C439.827 819.047 441.291 824.555 444.219 828.57C447.175 832.558 451.233 834.552 456.392 834.552C461.579 834.552 465.595 832.67 468.44 828.905C471.284 825.112 472.748 819.688 472.832 812.633V808.115ZM548.618 815.896H534.312V840.534H526.238V779.628H546.401C553.261 779.628 558.532 781.19 562.213 784.313C565.922 787.437 567.777 791.982 567.777 797.95C567.777 801.743 566.745 805.048 564.681 807.864C562.645 810.681 559.801 812.786 556.148 814.181L570.454 840.032V840.534H561.837L548.618 815.896ZM534.312 809.328H546.652C550.64 809.328 553.805 808.296 556.148 806.233C558.518 804.169 559.703 801.408 559.703 797.95C559.703 794.185 558.574 791.299 556.315 789.291C554.084 787.283 550.849 786.265 546.61 786.237H534.312V809.328ZM651.218 786.237H631.641V840.534H623.651V786.237H604.116V779.628H651.218V786.237ZM740.474 840.534H732.4V812.382H701.696V840.534H693.665V779.628H701.696V805.814H732.4V779.628H740.474V840.534ZM876.443 824.638H850.926L845.195 840.534H836.913L860.171 779.628H867.198L890.498 840.534H882.258L876.443 824.638ZM853.352 818.029H874.059L863.685 789.542L853.352 818.029ZM942.482 779.628L962.394 829.323L982.306 779.628H992.722V840.534H984.69V816.816L985.443 791.215L965.448 840.534H959.299L939.345 791.341L940.14 816.816V840.534H932.108V779.628H942.482ZM1074.74 812.382H1048.35V833.967H1079.01V840.534H1040.31V779.628H1078.59V786.237H1048.35V805.814H1074.74V812.382ZM1144.75 815.896H1130.45V840.534H1122.37V779.628H1142.54C1149.4 779.628 1154.67 781.19 1158.35 784.313C1162.06 787.437 1163.91 791.982 1163.91 797.95C1163.91 801.743 1162.88 805.048 1160.82 807.864C1158.78 810.681 1155.94 812.786 1152.28 814.181L1166.59 840.032V840.534H1157.97L1144.75 815.896ZM1130.45 809.328H1142.79C1146.78 809.328 1149.94 808.296 1152.28 806.233C1154.65 804.169 1155.84 801.408 1155.84 797.95C1155.84 794.185 1154.71 791.299 1152.45 789.291C1150.22 787.283 1146.99 786.265 1142.75 786.237H1130.45V809.328ZM1217.24 840.534H1209.2V779.628H1217.24V840.534ZM1310.17 821.208C1309.42 827.65 1307.04 832.628 1303.02 836.142C1299.03 839.628 1293.72 841.371 1287.08 841.371C1279.89 841.371 1274.11 838.791 1269.76 833.632C1265.44 828.473 1263.28 821.571 1263.28 812.926V807.069C1263.28 801.408 1264.28 796.43 1266.29 792.136C1268.33 787.841 1271.2 784.55 1274.91 782.264C1278.62 779.949 1282.91 778.792 1287.79 778.792C1294.26 778.792 1299.45 780.604 1303.35 784.23C1307.26 787.827 1309.53 792.819 1310.17 799.205H1302.1C1301.4 794.353 1299.88 790.839 1297.54 788.664C1295.22 786.488 1291.98 785.401 1287.79 785.401C1282.66 785.401 1278.63 787.297 1275.7 791.09C1272.8 794.883 1271.35 800.279 1271.35 807.278V813.177C1271.35 819.786 1272.73 825.043 1275.49 828.947C1278.26 832.851 1282.12 834.803 1287.08 834.803C1291.54 834.803 1294.96 833.799 1297.33 831.791C1299.73 829.756 1301.32 826.228 1302.1 821.208H1310.17ZM1388.22 824.638H1362.7L1356.97 840.534H1348.69L1371.95 779.628H1378.97L1402.27 840.534H1394.03L1388.22 824.638ZM1365.13 818.029H1385.83L1375.46 789.542L1365.13 818.029Z" fill="black"/>
<path d="M332 761.534L1434.8 759.247" stroke="black" stroke-width="3" stroke-miterlimit="10"/>
<path d="M332 863.687L1434.8 861.534" stroke="black" stroke-width="3" stroke-miterlimit="10"/>
<path d="M430.313 707.708L416.16 586.594H397.021C397.021 586.594 322.485 797.333 212.906 729.105C193.632 704.478 197.945 671.239 225.171 684.427C252.397 697.615 245.254 664.511 245.254 664.511C245.254 664.511 220.723 637.596 188.24 674.738C155.757 711.88 237.841 817.653 329.494 722.915C340.79 709.938 351.15 696.177 360.494 681.736H400.93V707.439L385.025 728.432H453.63L430.313 707.708ZM370.064 668.951L392.438 626.965L401.334 668.279L370.064 668.951Z" fill="black"/>
<path d="M464.951 610.412H451.742L490.83 582.69V673.93L516.843 652.802L511.721 645.132H502.96V635.039H549.056V645.132L518.73 668.412L556.065 716.454H566.174V728.566H511.721L511.047 718.742L517.786 718.473L502.286 691.29L494.064 691.02L495.008 718.069L502.286 718.473L502.556 728.566H458.077V719.28L466.299 719.011L466.838 610.278L464.951 610.412Z" fill="black"/>
<path d="M570.758 695.191C570.758 695.191 604.724 728.969 622.92 705.822C630.333 695.191 583.967 686.848 583.967 686.848C583.967 686.848 545.958 664.509 581.541 635.576C598.928 627.098 631.142 635.576 631.142 635.576V655.627C625.232 650.324 617.826 646.973 609.937 646.034C602.047 645.094 594.06 646.612 587.067 650.379C581.002 660.606 598.793 663.836 598.793 663.836C598.793 663.836 669.42 670.565 636.802 715.108C629.179 721.696 619.666 725.712 609.621 726.582C599.576 727.452 589.513 725.132 580.867 719.952C576.42 715.673 571.49 711.925 566.176 708.783L570.758 695.191Z" fill="black"/>
<path d="M650.82 600.051L677.776 586.594H687.481V644.459C687.481 644.459 735.599 625.485 743.416 658.724V712.553C745.069 712.784 746.654 713.362 748.068 714.247C749.482 715.132 750.693 716.306 751.621 717.69C752.55 719.074 753.175 720.639 753.457 722.281C753.739 723.924 753.67 725.607 753.256 727.221L709.181 728.432C712.533 722.904 716.177 717.559 720.099 712.418V664.241C718.391 661.463 716.043 659.132 713.25 657.443C710.457 655.754 707.301 654.756 704.043 654.532C700.786 654.309 697.522 654.865 694.524 656.156C691.526 657.447 688.88 659.435 686.807 661.954L688.829 711.745C688.829 711.745 707.564 719.819 699.207 727.221H650.82L662.815 710.534V619.429C662.815 619.429 655.941 612.431 650.954 613.643L650.82 600.051Z" fill="black"/>
<path d="M1029.83 597.761L1056.79 584.304H1066.36V642.304C1066.36 642.304 1114.48 623.464 1122.29 656.569V710.397C1123.99 710.605 1125.62 711.177 1127.07 712.071C1128.52 712.966 1129.76 714.163 1130.71 715.582C1131.66 717 1132.29 718.605 1132.56 720.288C1132.82 721.972 1132.73 723.693 1132.27 725.335L1088.19 726.68C1091.54 721.105 1095.18 715.714 1099.11 710.532V662.355C1097.44 659.389 1095.06 656.885 1092.18 655.07C1089.3 653.254 1086.01 652.185 1082.61 651.958C1079.21 651.731 1075.81 652.353 1072.71 653.769C1069.62 655.185 1066.92 657.35 1064.87 660.067L1066.9 709.859C1066.9 709.859 1085.63 717.933 1077.27 725.335H1029.83L1041.83 708.648V617.543C1041.83 617.543 1034.95 610.545 1029.97 611.891L1029.83 597.761Z" fill="black"/>
<path d="M1211.79 709.994V649.437C1211.79 649.437 1203.43 624.003 1159.22 635.98C1139.28 649.437 1146.69 675.41 1160.44 657.377C1160.44 657.377 1183.48 630.463 1189.42 657.377C1189.42 657.377 1196.02 677.159 1158.01 673.929C1125.66 673.929 1138.6 717.665 1138.6 717.665C1138.6 717.665 1167.58 738.793 1186.18 717.665C1193.19 711.744 1203.43 727.085 1203.43 727.085L1222.3 728.431V709.86L1211.79 709.994ZM1189.95 709.994C1189.95 709.994 1164.48 714.705 1160.3 699.633C1160.3 699.633 1157.88 675.141 1189.95 680.12C1194.54 683.888 1189.95 710.533 1189.95 710.533V709.994Z" fill="black"/>
<path d="M830.082 708.916V648.359C830.082 648.359 821.725 622.925 777.381 634.902C757.568 648.359 764.982 674.332 778.73 656.299C778.73 656.299 801.643 629.385 807.709 656.299C807.709 656.299 814.178 676.081 776.169 672.851C743.956 672.851 756.759 716.452 756.759 716.452C756.759 716.452 785.874 737.715 804.474 716.452C811.483 710.666 821.591 726.007 821.591 726.007L840.595 727.353V708.782L830.082 708.916ZM808.248 708.916C808.248 708.916 782.773 713.626 778.459 698.554C778.459 698.554 776.169 674.062 808.248 679.041C812.696 682.809 808.787 709.455 808.787 709.455L808.248 708.916Z" fill="black"/>
<path d="M869.035 663.837V710.13L853.939 722.779H887.365V663.837C892.488 659.317 898.774 656.316 905.514 655.175C912.255 654.033 919.18 654.796 925.509 657.378V644.728C925.509 644.728 897.205 643.248 887.365 651.86V636.519H878.47C878.47 636.519 859.735 637.999 859.735 663.433L869.035 663.837Z" fill="black"/>
<path d="M1010.02 710.131L1013.12 590.228H1002.47L971.201 614.316H989.127L988.049 639.615C988.049 639.615 947.614 631.81 929.687 662.492C911.896 701.114 934.54 725.606 953.949 728.567C974.594 729.014 995.199 726.522 1015.14 721.166V710.669L1010.02 710.131ZM988.588 710.131C986.631 712.748 984.088 714.874 981.163 716.338C978.239 717.802 975.012 718.564 971.74 718.564C968.468 718.564 965.242 717.802 962.317 716.338C959.392 714.874 956.85 712.748 954.892 710.131C937.101 690.618 957.992 659.666 957.992 659.666C957.992 659.666 966.079 642.576 988.588 655.495V710.131Z" fill="black"/>
<path d="M1236.59 597.895L1254.25 603.547V707.705L1236.59 718.74V728.429L1297.11 726.68V714.568L1282.28 708.378L1277.7 604.085L1347.92 728.967H1366.12L1374.88 610.41C1374.88 610.41 1445.24 791.678 1546.86 754.132C1627.73 705.014 1559.26 619.561 1527.32 664.508C1516.54 689.673 1546.86 693.979 1549.43 683.348C1555.89 675.139 1574.76 686.712 1566.54 705.956C1558.32 725.199 1525.16 769.07 1449.82 709.724C1449.82 709.724 1389.57 612.832 1381.48 587.264H1351.16L1342.13 678.638L1290.77 587.264H1236.86L1236.59 597.895Z" fill="black"/>
<path d="M442.924 532.243C442.924 530.066 442.153 528.388 440.611 527.208C439.091 526.029 436.336 524.838 432.344 523.636C428.353 522.434 425.178 521.096 422.819 519.622C418.306 516.787 416.049 513.091 416.049 508.532C416.049 504.541 417.671 501.252 420.914 498.667C424.18 496.081 428.409 494.789 433.603 494.789C437.05 494.789 440.123 495.424 442.822 496.694C445.521 497.964 447.641 499.778 449.183 502.137C450.725 504.473 451.497 507.069 451.497 509.927H442.924C442.924 507.341 442.107 505.323 440.475 503.872C438.864 502.397 436.551 501.66 433.535 501.66C430.723 501.66 428.534 502.261 426.969 503.463C425.427 504.665 424.656 506.344 424.656 508.498C424.656 510.312 425.495 511.832 427.173 513.057C428.852 514.259 431.618 515.438 435.474 516.595C439.329 517.728 442.425 519.033 444.761 520.507C447.097 521.958 448.809 523.636 449.898 525.541C450.986 527.424 451.531 529.635 451.531 532.175C451.531 536.303 449.943 539.591 446.768 542.04C443.616 544.467 439.329 545.68 433.909 545.68C430.326 545.68 427.026 545.023 424.01 543.707C421.016 542.369 418.68 540.532 417.002 538.196C415.346 535.86 414.518 533.139 414.518 530.032H423.125C423.125 532.844 424.055 535.021 425.915 536.563C427.774 538.106 430.439 538.877 433.909 538.877C436.903 538.877 439.148 538.276 440.645 537.074C442.164 535.849 442.924 534.239 442.924 532.243ZM534.16 532.753L541.78 495.469H550.319L538.889 545H530.656L521.233 508.838L511.606 545H503.339L491.909 495.469H500.448L508.136 532.685L517.593 495.469H524.805L534.16 532.753ZM619.069 533.468H599.883L595.869 545H586.922L605.632 495.469H613.354L632.098 545H623.117L619.069 533.468ZM602.298 526.528H616.654L609.476 505.981L602.298 526.528ZM685.132 495.469L699.42 533.434L713.673 495.469H724.798V545H716.225V528.671L717.075 506.831L702.447 545H696.29L681.696 506.865L682.546 528.671V545H673.974V495.469H685.132ZM780.314 545H771.742V495.469H780.314V545ZM866.414 545H857.807L835.729 509.859V545H827.123V495.469H835.729L857.875 530.746V495.469H866.414V545ZM941.151 533.468H921.965L917.951 545H909.004L927.714 495.469H935.436L954.181 545H945.2L941.151 533.468ZM924.38 526.528H938.736L931.558 505.981L924.38 526.528ZM1014.25 525.916H1004.66V545H996.056V495.469H1013.47C1019.19 495.469 1023.6 496.75 1026.71 499.313C1029.81 501.876 1031.37 505.584 1031.37 510.437C1031.37 513.748 1030.56 516.526 1028.95 518.772C1027.36 520.994 1025.14 522.707 1022.28 523.908L1033.41 544.558V545H1024.19L1014.25 525.916ZM1004.66 519.01H1013.51C1016.41 519.01 1018.68 518.284 1020.31 516.833C1021.94 515.359 1022.76 513.351 1022.76 510.811C1022.76 508.158 1022 506.105 1020.48 504.654C1018.98 503.203 1016.74 502.454 1013.74 502.409H1004.66V519.01ZM1103.48 533.468H1084.3L1080.28 545H1071.34L1090.05 495.469H1097.77L1116.51 545H1107.53L1103.48 533.468ZM1086.71 526.528H1101.07L1093.89 505.981L1086.71 526.528ZM1169.44 518.942L1180.84 495.469H1190.37L1173.77 526.766V545H1165.12V526.766L1148.49 495.469H1158.05L1169.44 518.942ZM1254.59 533.468H1235.41L1231.39 545H1222.44L1241.15 495.469H1248.88L1267.62 545H1258.64L1254.59 533.468ZM1237.82 526.528H1252.18L1245 505.981L1237.82 526.528ZM1348.79 545H1340.18L1318.1 509.859V545H1309.5V495.469H1318.1L1340.25 530.746V495.469H1348.79V545Z" fill="black"/>
</svg>
