<svg width="41" height="40" viewBox="0 0 41 40" fill="none" xmlns="http://www.w3.org/2000/svg">
<path d="M1.09392 23.1938C-0.603537 11.8698 6.93413 1.67044 18.207 0.179318C29.3585 -1.29573 39.1674 6.52835 40.5751 17.2217C41.9891 27.9624 35.2143 37.4054 24.6287 39.6094C13.7882 41.8666 2.57291 34.0833 1.09392 23.1938ZM26.8939 26.3374C26.9946 25.6198 27.0953 24.9022 27.2133 24.0608C23.6391 24.0608 20.3112 24.041 16.9837 24.067C14.2071 24.0887 13.9386 23.4418 14.9012 26.9229C15.9012 30.5396 19.6771 32.4284 23.044 31.0519C25.0762 30.221 26.2269 28.574 26.8939 26.3374ZM12.5895 18.6764C12.9906 18.812 13.51 19.1795 13.7733 19.0451C15.3893 18.2205 16.7698 17.1137 17.2002 15.2166C17.4116 14.285 17.0786 13.4711 16.3087 12.9507C15.6104 12.4787 14.846 12.458 14.0908 13.0008C13.862 13.1652 13.3631 13.2263 13.1467 13.0874C12.2942 12.5401 11.4716 12.3638 10.6434 13.0424C9.77367 13.755 9.50258 14.7909 10.0385 15.6865C10.676 16.7519 11.6383 17.623 12.5895 18.6764ZM25.0264 13.122C24.3939 13.9291 24.1823 14.8482 24.5553 15.7937C25.1546 17.313 26.3891 18.2672 27.7535 19.0583C27.9128 19.1507 28.2558 19.1629 28.3714 19.057C29.4186 18.0984 30.5658 17.2058 31.418 16.0908C32.1158 15.1778 31.8544 13.7639 31.1404 13.1525C30.2779 12.414 29.384 12.3891 28.4765 13.1625C28.3347 13.2834 27.8919 13.2183 27.6982 13.0825C26.8529 12.4894 26.0234 12.4499 25.0264 13.122Z" fill="#78BC50"/>
</svg>
