<svg width="41" height="40" viewBox="0 0 41 40" fill="none" xmlns="http://www.w3.org/2000/svg">
<path d="M1.8371 23.0924L1.83717 23.0924L1.83564 23.0822C0.198897 12.1632 7.45768 2.35723 18.3054 0.922353C29.0408 -0.497666 38.4772 7.03135 39.8316 17.3191C41.1938 27.667 34.6806 36.7499 24.4759 38.8747C14.0511 41.0453 3.25617 33.5408 1.8371 23.0924ZM27.6126 26.5513L27.6288 26.4971L27.6366 26.4412L27.9561 24.1646L28.0759 23.3104H27.2133C26.1201 23.3104 25.0486 23.3085 23.9924 23.3066C21.6014 23.3025 19.2885 23.2985 16.9779 23.3165C16.5424 23.3199 16.2239 23.3083 15.9315 23.2977C15.7376 23.2906 15.5551 23.284 15.3576 23.2824C15.1474 23.2807 14.9235 23.2864 14.7171 23.3238C14.5096 23.3614 14.2474 23.4433 14.0267 23.6506C13.7938 23.8694 13.6949 24.1441 13.6615 24.3963C13.6301 24.6332 13.6513 24.8842 13.6889 25.126C13.7639 25.6076 13.9418 26.2672 14.1783 27.1223C15.2936 31.1559 19.5297 33.2984 23.3278 31.7456C25.6367 30.8017 26.9046 28.9256 27.6126 26.5513ZM12.0329 19.1786L12.164 19.3238L12.3494 19.3864C12.4058 19.4055 12.4801 19.4377 12.5872 19.4882C12.6094 19.4986 12.634 19.5103 12.6601 19.5228C12.7436 19.5626 12.8433 19.6101 12.9355 19.6499C13.0569 19.7024 13.2188 19.766 13.3921 19.7993C13.5583 19.8312 13.8348 19.8552 14.1142 19.7127C15.8063 18.8492 17.428 17.6015 17.9316 15.3821C18.2119 14.1468 17.753 13.0212 16.7287 12.3288C16.2768 12.0234 15.7647 11.8393 15.2137 11.8447C14.6666 11.8501 14.144 12.0418 13.6662 12.3819C13.6619 12.3837 13.6552 12.3863 13.646 12.3893C13.617 12.3987 13.5786 12.4071 13.5378 12.4113C13.5169 12.4134 13.4994 12.414 13.4858 12.4139C13.0244 12.1265 12.5032 11.8941 11.9357 11.8564C11.3113 11.8148 10.7144 12.0141 10.1681 12.4618C9.07541 13.3571 8.62818 14.7898 9.39492 16.0712C9.90945 16.9311 10.6379 17.6979 11.3408 18.4379C11.5774 18.687 11.8112 18.933 12.0329 19.1786ZM24.6072 12.4996L24.5091 12.5657L24.4361 12.6589C23.6715 13.6346 23.3693 14.8306 23.8576 16.0685C24.552 17.8288 25.9709 18.8912 27.3774 19.7066L27.7535 19.0578L27.3774 19.7066C27.6096 19.8413 27.8781 19.8793 28.0703 19.8815C28.1776 19.8827 28.3003 19.8735 28.4246 19.8434C28.5373 19.8162 28.7179 19.7562 28.8778 19.6098C29.1068 19.4001 29.3498 19.1865 29.5993 18.9671C30.4235 18.2425 31.3183 17.4557 32.0139 16.5457C32.5057 15.9023 32.6392 15.1125 32.553 14.4159C32.4678 13.7281 32.1563 13.0345 31.6282 12.5823L31.1404 13.152L31.6282 12.5823C31.1044 12.1338 30.4999 11.8428 29.8284 11.84C29.219 11.8375 28.6546 12.0727 28.146 12.4647C28.135 12.4621 28.1248 12.4593 28.1157 12.4563C28.113 12.4554 28.1107 12.4546 28.1087 12.4539C27.6022 12.1028 27.0424 11.8773 26.4192 11.8773C25.7908 11.8773 25.1901 12.1066 24.6072 12.4996Z" fill="white" stroke="#78BC50" stroke-width="1.5"/>
<path d="M26.8643 26.4233C26.2291 28.5734 25.0784 30.2204 23.0462 31.0512C19.6793 32.4277 15.9034 30.539 14.9033 26.9222C13.9408 23.4412 14.2093 24.088 16.9859 24.0663C20.3134 24.0403 23.6413 24.0602 27.2155 24.0602C27.0975 24.9015 26.9968 25.6192 26.8643 26.4233Z" fill="white"/>
<path d="M12.523 18.6269C11.6366 17.6226 10.6743 16.7516 10.0368 15.6862C9.50088 14.7905 9.77198 13.7546 10.6417 13.042C11.4699 12.3634 12.2925 12.5397 13.145 13.087C13.3614 13.2259 13.8603 13.1649 14.0891 13.0004C14.8443 12.4576 15.6087 12.4783 16.307 12.9503C17.0769 13.4707 17.4099 14.2846 17.1985 15.2162C16.7681 17.1133 15.3876 18.2201 13.7716 19.0447C13.5083 19.1791 12.9889 18.8116 12.523 18.6269Z" fill="white"/>
<path d="M25.093 13.0588C26.025 12.4494 26.8544 12.4889 27.6998 13.0821C27.8934 13.2179 28.3362 13.283 28.4781 13.1621C29.3855 12.3887 30.2794 12.4135 31.1419 13.1521C31.856 13.7635 32.1174 15.1774 31.4195 16.0903C30.5673 17.2053 29.4202 18.098 28.3729 19.0566C28.2573 19.1625 27.9144 19.1502 27.7551 19.0579C26.3907 18.2668 25.1561 17.3126 24.5568 15.7933C24.1838 14.8478 24.3955 13.9287 25.093 13.0588Z" fill="white"/>
</svg>
