<svg width="41" height="40" viewBox="0 0 41 40" fill="none" xmlns="http://www.w3.org/2000/svg">
<path d="M23.1549 20.2748L23.1451 20.2722L23.1353 20.2699C21.3033 19.8347 19.4643 19.9044 17.683 20.5567C15.2974 21.4303 13.2823 22.9158 12.2884 25.4986C12.1827 25.7732 12.1702 26.0961 12.1917 26.3352C12.2032 26.4634 12.2282 26.6119 12.279 26.7552C12.3175 26.8637 12.425 27.1302 12.7027 27.2913L13.0791 26.6426L12.7027 27.2913C13.1511 27.5514 13.8389 27.7243 14.4347 27.5592C14.6946 27.4872 14.8668 27.3247 14.9661 27.208C15.0678 27.0886 15.1423 26.9587 15.1944 26.8591C15.2438 26.7646 15.2893 26.665 15.3247 26.5873L15.3327 26.5698C15.3736 26.4803 15.4016 26.4204 15.427 26.3739C16.6155 24.1978 18.5739 23.2208 20.9506 23.2327C23.2648 23.2443 25.2422 24.1438 26.2971 26.2207C26.6234 26.8632 27.0638 27.4332 27.7589 27.5886C28.4226 27.7371 29.0553 27.4403 29.5779 27.1224L30.1065 26.8009L29.8913 26.2208C28.7339 23.1005 26.4922 21.1629 23.1549 20.2748ZM14.3244 18.5378L14.434 18.515L14.5321 18.4612C14.6094 18.4188 14.6678 18.3921 14.7432 18.3576C14.8018 18.3307 14.8706 18.2992 14.9666 18.252C15.1397 18.1668 15.3729 18.0407 15.5764 17.841L15.5765 17.841C15.9987 17.4268 16.3708 16.9346 16.5707 16.3482C16.7759 15.7462 16.7826 15.0932 16.546 14.4054C16.3213 13.7525 15.8767 13.1771 15.3448 12.7677C14.8154 12.3602 14.1409 12.0733 13.4326 12.0928C12.0353 12.1313 11.0618 12.8919 10.4622 14.05L11.1282 14.3948L10.4622 14.05C9.91592 15.1051 10.1086 16.396 10.7997 17.3211C11.519 18.2839 12.7734 18.8608 14.3244 18.5378ZM26.6807 12.6671L26.5643 12.7196L26.4719 12.8075C26.4588 12.82 26.4411 12.8364 26.4205 12.8555C26.3589 12.9127 26.2709 12.9944 26.2009 13.0675L26.7425 13.5862L26.2009 13.0675C25.6493 13.6434 25.2718 14.2902 25.1508 14.9935C25.0277 15.7086 25.1828 16.4094 25.5707 17.0512C26.3605 18.3581 28.0474 18.9379 29.518 18.4886C31.0207 18.0295 31.7358 16.6177 31.6133 15.0098C31.5267 13.8734 30.8825 12.9827 29.9249 12.5455C28.9843 12.116 27.819 12.1541 26.6807 12.6671ZM1.78053 22.1917C1.32076 16.4518 2.79699 11.4868 6.52472 7.19845C13.3455 -0.648042 25.7535 -1.46192 33.5678 5.46294C44.1587 14.8482 41.6229 31.7222 28.7455 37.5675C17.6404 42.6084 4.45334 35.8253 2.02732 23.805C1.95972 23.47 1.91441 23.1431 1.86137 22.7603C1.83702 22.5846 1.81104 22.3971 1.78053 22.1917Z" fill="white" stroke="#EF642E" stroke-width="1.5"/>
</svg>
