<svg width="41" height="40" viewBox="0 0 41 40" fill="none" xmlns="http://www.w3.org/2000/svg">
<path d="M1.03499 22.2769C0.554077 16.3428 2.08211 11.1657 5.95868 6.70617C13.0535 -1.45561 25.9393 -2.29956 34.0653 4.90138C45.0621 14.6464 42.4281 32.18 29.0555 38.2502C17.5072 43.4923 3.81272 36.4419 1.29215 23.9531C1.18734 23.4338 1.1288 22.9052 1.03499 22.2769ZM22.962 20.9993C21.2627 20.5957 19.5744 20.6625 17.9409 21.2607C15.6898 22.085 13.8817 23.4464 12.9883 25.7677C12.8894 26.0247 12.9246 26.5528 13.0791 26.6424C13.4043 26.831 13.8835 26.9334 14.2345 26.8362C14.4709 26.7707 14.6076 26.3094 14.7688 26.0142C16.1059 23.5661 18.3381 22.4694 20.9544 22.4825C23.4682 22.4951 25.7506 23.4882 26.9658 25.8809C27.5675 27.0654 28.1747 27.0977 29.1882 26.4814C28.122 23.6072 26.0829 21.8299 22.962 20.9993ZM14.1715 17.8033C14.4681 17.6407 14.8188 17.5333 15.0513 17.3053C15.7939 16.577 16.2056 15.7209 15.8368 14.6491C15.4938 13.6524 14.4422 12.815 13.4533 12.8423C12.3757 12.8719 11.6256 13.4339 11.1282 14.3946C10.3345 15.9275 11.6337 18.3318 14.1715 17.8033ZM26.9889 13.3507C26.9066 13.4289 26.821 13.5041 26.7425 13.586C25.7858 14.585 25.6023 15.6532 26.2126 16.663C26.8113 17.6538 28.1315 18.1278 29.2989 17.7711C30.3794 17.441 30.9688 16.4234 30.8655 15.0665C30.7335 13.3344 28.9508 12.4665 26.9889 13.3507Z" fill="#EF642E"/>
</svg>
